<mxfile host="Electron" agent="Mozilla/5.0 (Windows NT 10.0; Win64; x64) AppleWebKit/537.36 (KHTML, like Gecko) draw.io/24.7.17 Chrome/128.0.6613.36 Electron/32.0.1 Safari/537.36" version="24.7.17">
  <diagram name="Page-1" id="FWTrEqLtcXx3ZSVu-V41">
    <mxGraphModel dx="1430" dy="825" grid="1" gridSize="10" guides="1" tooltips="1" connect="1" arrows="1" fold="1" page="1" pageScale="1" pageWidth="850" pageHeight="1100" math="0" shadow="0">
      <root>
        <mxCell id="0" />
        <mxCell id="1" parent="0" />
        <mxCell id="Yp6B5oxLcKKLGlSEY2r6-1" value="UART&lt;div&gt;Receiver&lt;/div&gt;" style="rounded=1;whiteSpace=wrap;html=1;" vertex="1" parent="1">
          <mxGeometry x="360" y="417.5" width="110" height="90" as="geometry" />
        </mxCell>
        <mxCell id="Yp6B5oxLcKKLGlSEY2r6-2" value="UART&lt;div&gt;Transmitter&lt;/div&gt;" style="rounded=1;whiteSpace=wrap;html=1;" vertex="1" parent="1">
          <mxGeometry x="360" y="570" width="110" height="90" as="geometry" />
        </mxCell>
        <mxCell id="Yp6B5oxLcKKLGlSEY2r6-4" value="UART&lt;div&gt;FIFO&lt;/div&gt;" style="rounded=1;whiteSpace=wrap;html=1;" vertex="1" parent="1">
          <mxGeometry x="640" y="417.5" width="110" height="90" as="geometry" />
        </mxCell>
        <mxCell id="Yp6B5oxLcKKLGlSEY2r6-5" value="PC" style="rounded=1;whiteSpace=wrap;html=1;" vertex="1" parent="1">
          <mxGeometry x="150" y="420" width="120" height="85" as="geometry" />
        </mxCell>
        <mxCell id="Yp6B5oxLcKKLGlSEY2r6-7" value="7 Segment&lt;div&gt;Display&lt;/div&gt;" style="rounded=1;whiteSpace=wrap;html=1;" vertex="1" parent="1">
          <mxGeometry x="490" y="300" width="115" height="85" as="geometry" />
        </mxCell>
        <mxCell id="Yp6B5oxLcKKLGlSEY2r6-13" value="" style="endArrow=classic;html=1;rounded=0;exitX=1;exitY=0.472;exitDx=0;exitDy=0;exitPerimeter=0;endFill=1;entryX=0;entryY=0.472;entryDx=0;entryDy=0;entryPerimeter=0;" edge="1" parent="1" source="Yp6B5oxLcKKLGlSEY2r6-1" target="Yp6B5oxLcKKLGlSEY2r6-4">
          <mxGeometry width="50" height="50" relative="1" as="geometry">
            <mxPoint x="510" y="460" as="sourcePoint" />
            <mxPoint x="570" y="460" as="targetPoint" />
          </mxGeometry>
        </mxCell>
        <mxCell id="Yp6B5oxLcKKLGlSEY2r6-17" value="" style="endArrow=classic;html=1;rounded=0;entryX=0;entryY=0.472;entryDx=0;entryDy=0;entryPerimeter=0;exitX=1;exitY=0.47;exitDx=0;exitDy=0;exitPerimeter=0;endFill=1;" edge="1" parent="1" source="Yp6B5oxLcKKLGlSEY2r6-5" target="Yp6B5oxLcKKLGlSEY2r6-1">
          <mxGeometry width="50" height="50" relative="1" as="geometry">
            <mxPoint x="240" y="460" as="sourcePoint" />
            <mxPoint x="340" y="460" as="targetPoint" />
          </mxGeometry>
        </mxCell>
        <mxCell id="Yp6B5oxLcKKLGlSEY2r6-19" value="" style="endArrow=none;html=1;rounded=0;exitX=1;exitY=0.444;exitDx=0;exitDy=0;exitPerimeter=0;endFill=0;startArrow=classic;startFill=1;" edge="1" parent="1" source="Yp6B5oxLcKKLGlSEY2r6-2">
          <mxGeometry width="50" height="50" relative="1" as="geometry">
            <mxPoint x="502.5" y="700" as="sourcePoint" />
            <mxPoint x="700" y="610" as="targetPoint" />
          </mxGeometry>
        </mxCell>
        <mxCell id="Yp6B5oxLcKKLGlSEY2r6-20" value="" style="endArrow=classic;html=1;rounded=0;entryX=0.497;entryY=1.027;entryDx=0;entryDy=0;entryPerimeter=0;" edge="1" parent="1" target="Yp6B5oxLcKKLGlSEY2r6-5">
          <mxGeometry width="50" height="50" relative="1" as="geometry">
            <mxPoint x="210" y="610" as="sourcePoint" />
            <mxPoint x="209.82999999999998" y="525" as="targetPoint" />
          </mxGeometry>
        </mxCell>
        <mxCell id="Yp6B5oxLcKKLGlSEY2r6-21" value="Rx" style="text;html=1;align=center;verticalAlign=middle;whiteSpace=wrap;rounded=0;" vertex="1" parent="1">
          <mxGeometry x="180" y="510" width="30" height="17.5" as="geometry" />
        </mxCell>
        <mxCell id="Yp6B5oxLcKKLGlSEY2r6-22" value="Tx" style="text;html=1;align=center;verticalAlign=middle;whiteSpace=wrap;rounded=0;" vertex="1" parent="1">
          <mxGeometry x="270" y="440" width="30" height="20" as="geometry" />
        </mxCell>
        <mxCell id="Yp6B5oxLcKKLGlSEY2r6-26" value="" style="endArrow=classic;html=1;rounded=0;entryX=0.52;entryY=1.002;entryDx=0;entryDy=0;entryPerimeter=0;endFill=1;startArrow=oval;startFill=1;" edge="1" parent="1" target="Yp6B5oxLcKKLGlSEY2r6-7">
          <mxGeometry width="50" height="50" relative="1" as="geometry">
            <mxPoint x="550" y="460" as="sourcePoint" />
            <mxPoint x="550" y="390" as="targetPoint" />
          </mxGeometry>
        </mxCell>
        <mxCell id="Yp6B5oxLcKKLGlSEY2r6-27" value="Read" style="text;html=1;align=center;verticalAlign=middle;whiteSpace=wrap;rounded=0;" vertex="1" parent="1">
          <mxGeometry x="660" y="508.75" width="40" height="20" as="geometry" />
        </mxCell>
        <mxCell id="Yp6B5oxLcKKLGlSEY2r6-28" value="Write" style="text;html=1;align=center;verticalAlign=middle;whiteSpace=wrap;rounded=0;" vertex="1" parent="1">
          <mxGeometry x="590" y="440" width="40" height="20" as="geometry" />
        </mxCell>
        <mxCell id="Yp6B5oxLcKKLGlSEY2r6-29" value="" style="endArrow=none;html=1;rounded=0;entryX=0.548;entryY=0.997;entryDx=0;entryDy=0;entryPerimeter=0;" edge="1" parent="1" target="Yp6B5oxLcKKLGlSEY2r6-4">
          <mxGeometry width="50" height="50" relative="1" as="geometry">
            <mxPoint x="700" y="610" as="sourcePoint" />
            <mxPoint x="700" y="532.5" as="targetPoint" />
          </mxGeometry>
        </mxCell>
        <mxCell id="Yp6B5oxLcKKLGlSEY2r6-30" value="" style="endArrow=none;html=1;rounded=0;exitX=0;exitY=0.444;exitDx=0;exitDy=0;exitPerimeter=0;" edge="1" parent="1" source="Yp6B5oxLcKKLGlSEY2r6-2">
          <mxGeometry width="50" height="50" relative="1" as="geometry">
            <mxPoint x="294.76" y="610" as="sourcePoint" />
            <mxPoint x="210" y="610" as="targetPoint" />
          </mxGeometry>
        </mxCell>
      </root>
    </mxGraphModel>
  </diagram>
</mxfile>
